<?xml version="1.0" encoding="UTF-8"?>
<svg id="logosandtypes_com" data-name="logosandtypes com" xmlns="http://www.w3.org/2000/svg" viewBox="0 0 150 150">
  <defs>
    <style>
      .cls-1 {
        fill: #380953;
      }

      .cls-2 {
        fill: none;
      }
    </style>
  </defs>
  <path class="cls-2" d="M0,0H150V150H0V0Z"/>
  <g id="_レイヤー_2" data-name="レイヤー 2">
    <g id="_レイヤー_1-2" data-name="レイヤー 1-2">
      <path id="symbol" class="cls-1" d="M68.26,142.01c-4.84-.31-11.62-1.66-19.09-3.86-6.86-2.01-16-5.52-16.07-12.8-.06-5.22,2.97-9.69,9.25-13.67,2.83-1.72,5.76-3.27,8.77-4.66,2.7-1.24,8.09-3.59,12.18-5.12V37.03l-24.27-2.62V104.24c0,2.76-2.24,4.61-4.97,4.61s-4.97-1.85-4.97-4.61V28.84c0-2.74,2.22-4.97,4.97-4.97,.18,0,.36,0,.55,.03l34.26,3.71c2.54,.26,4.47,2.41,4.45,4.97V97.85c4.71-1.91,9.28-3.86,13.24-5.68,12.42-5.68,20.82-11.51,25.67-17.82,9.42-12.97,8.21-31.52-.48-42.91-4.33-6.17-12.29-11.15-20.77-12.2-3.37-.45-4.97-2.81-4.76-5.17,1.19-7.59,12.92-3.91,17.99-1.45,23.16,11.36,28.89,36.35,21.95,56.93-5.35,16.78-26.39,27.82-35.32,31.6-4.78,2.18-15.45,6.62-17.55,7.46v28.44c0,1.44-.62,2.81-1.71,3.76-.88,.74-1.98,1.17-3.13,1.2h-.2Zm-4.97-29.35c-3.05,1.1-7.72,2.82-9.48,3.64-1.66,.77-6.71,3.12-8.9,5.03-.55,.47-2.3,2.13-1.86,3.47,.4,1.23,2.46,2.06,10.48,4.23,2.85,.77,6.21,1.51,9.74,2.14l.02-18.51Z"/>
    </g>
  </g>
</svg>